Coordinates
version=1
nRows=29
nColumns=18
inDegrees=yes

Units are S.I. units (second, meters, Newtons, ...)
Angles are in degrees.

endheader
time	ground_thorax_rot_x	ground_thorax_rot_y	ground_thorax_rot_z	ground_thorax_tx	ground_thorax_ty	ground_thorax_tz	clav_prot	clav_elev	scapula_abduction	scapula_elevation	scapula_upward_rot	scapula_winging	plane_elv	shoulder_elv	axial_rot	elbow_flexion	pro_sup
      1.98000000	     -0.12516028	     -8.67771647	    -10.88720978	     -0.00423131	      0.00403036	     -0.00078352	    -24.57761736	      3.86594972	     10.08550378	     -4.75087484	     51.62697710	     -4.85377900	     61.81262121	     70.71988391	    -22.15099931	      0.00000000	     34.32000000
      1.99000000	     -0.16596306	     -8.72621853	    -10.91343365	     -0.00423131	      0.00403036	     -0.00078352	    -24.74527397	      3.95854004	     10.07882760	     -4.71979345	     52.00398897	     -4.92163097	     61.60812487	     70.88778326	    -21.92953141	      0.00000000	     34.32000000
      2.00000000	     -0.12682605	     -8.66709631	    -10.89304069	     -0.00423131	      0.00403036	     -0.00078352	    -24.97239021	      4.23234690	      9.93562651	     -4.56540581	     52.39659813	     -5.04483082	     61.41265316	     71.02004832	    -21.61815170	      0.00000000	     34.32000000
      2.01000000	     -0.03945498	     -8.51833707	    -10.85124410	     -0.00423131	      0.00403036	     -0.00078352	    -25.27765111	      4.54464100	      9.65734647	     -4.38948444	     52.80559600	     -5.18522723	     61.24922804	     71.25923416	    -21.02463001	      0.00000000	     34.32000000
      2.02000000	     -0.16475195	     -8.43433044	    -10.75477003	     -0.00423131	      0.00403036	     -0.00078352	    -25.38782475	      4.62159592	      9.57824293	     -4.35142272	     52.96807695	     -5.22640518	     60.88382167	     71.60080384	    -21.03155351	      0.00000000	     34.32000000
      2.03000000	     -0.07043555	     -8.41142876	    -10.87522432	     -0.00423131	      0.00403036	     -0.00078352	    -25.62465858	      4.69060067	      9.65096834	     -4.35124969	     53.57852825	     -5.31112763	     60.41576683	     71.83223416	    -20.89733451	      0.00000000	     34.32000000
      2.04000000	     -0.15944279	     -8.51540856	    -10.93614850	     -0.00423131	      0.00403036	     -0.00078352	    -25.68604458	      4.60428947	      9.89894238	     -4.43618284	     53.97938527	     -5.32216683	     59.93061759	     72.11003207	    -20.92860693	      0.00000000	     34.32000000
      2.05000000	     -0.33564169	     -8.52760890	    -11.03748840	     -0.00423131	      0.00403036	     -0.00078352	    -25.92533465	      4.45228052	      9.77795100	     -4.57328305	     54.29832039	     -5.32275481	     59.83441799	     72.44320280	    -20.25051648	      0.00000000	     34.32000000
      2.06000000	     -0.26898079	     -8.87354515	    -11.03370231	     -0.00423131	      0.00403036	     -0.00078352	    -25.94352411	      4.71382204	     10.09077184	     -4.41444215	     54.78615591	     -5.42989363	     59.69402444	     72.81017026	    -20.43578119	      0.00000000	     34.32000000
      2.07000000	     -0.80325679	     -8.79259539	    -11.18509392	     -0.00423131	      0.00403036	     -0.00078352	    -26.01158412	      4.20134759	      9.65681365	     -4.75264102	     54.26357991	     -5.25650983	     59.90806429	     73.67273187	    -18.51294597	      0.00000000	     34.32000000
      2.08000000	     -0.24230652	     -8.92362105	    -11.04396697	     -0.00423131	      0.00403036	     -0.00078352	    -26.28325456	      5.06254682	      9.90146439	     -4.21845567	     55.38199083	     -5.59489551	     59.51489363	     73.44911589	    -19.50587022	      0.00000000	     34.32000000
      2.09000000	     -0.73173980	     -8.78193171	    -11.16333639	     -0.00423131	      0.00403036	     -0.00078352	    -26.33345527	      4.54167274	      9.53763843	     -4.56471658	     54.90259210	     -5.42687264	     59.55803250	     74.34389952	    -17.67558583	      0.00000000	     34.32000000
      2.10000000	     -0.88898286	     -8.56422785	    -11.35563675	     -0.00423131	      0.00403036	     -0.00078352	    -26.73123508	      4.33374237	      9.17995918	     -4.75111243	     55.25753312	     -5.43177465	     59.27913023	     74.71881750	    -16.86448033	      0.00000000	     34.32000000
      2.11000000	     -0.82245136	     -8.63205141	    -11.21923706	     -0.00423131	      0.00403036	     -0.00078352	    -26.85255215	      4.62863242	      9.29855013	     -4.57264989	     55.74159663	     -5.55887737	     58.82232107	     74.77514841	    -17.08522418	      0.00000000	     34.32000000
      2.12000000	     -0.83107097	     -8.58682762	    -11.50600052	     -0.00423131	      0.00403036	     -0.00078352	    -27.22588661	      4.55508777	      9.11714429	     -4.66921796	     56.29317392	     -5.61370609	     58.68967247	     74.80477699	    -15.75226180	      0.00000000	     34.32000000
      2.13000000	     -0.25847044	     -8.89736494	    -11.19606200	     -0.00423131	      0.00403036	     -0.00078352	    -27.22547231	      5.57960485	      9.44087916	     -3.97842210	     56.97728775	     -5.92972377	     58.74365860	     74.78437028	    -15.69046009	      0.00000000	     34.32000000
      2.14000000	     -0.30841106	     -9.05220052	    -11.14889197	     -0.00423131	      0.00403036	     -0.00078352	    -27.18798210	      5.60079287	      9.75477249	     -3.97068859	     57.27605669	     -5.94400408	     58.20538364	     75.33541799	    -19.96644800	      0.00000000	     34.32000000
      2.15000000	     -0.74158216	     -8.84721065	    -11.32168392	     -0.00423131	      0.00403036	     -0.00078352	    -27.38862171	      4.94341692	      9.47845894	     -4.43884723	     57.17971223	     -5.78878007	     58.04786372	     75.67422660	    -18.19769960	      0.00000000	     34.32000000
      2.16000000	     -0.56618003	     -9.20401524	    -11.45107290	     -0.00423131	      0.00403036	     -0.00078352	    -27.27240024	      4.96715064	     10.25780253	     -4.43470014	     57.86737818	     -5.80869405	     57.20537162	     75.84975018	    -18.84113907	      0.00000000	     34.32000000
      2.17000000	     -0.95537974	     -8.97078904	    -11.56970804	     -0.00423131	      0.00403036	     -0.00078352	    -27.49202369	      4.54550815	      9.82080593	     -4.73831970	     57.69156568	     -5.71039900	     57.19681161	     76.49501859	    -17.55502631	      0.00000000	     34.32000000
      2.18000000	     -1.19295210	     -9.02893609	    -11.39286026	     -0.00423131	      0.00403036	     -0.00078352	    -27.54879078	      4.59267332	      9.81706807	     -4.71256855	     57.82031530	     -5.73698674	     57.17441960	     76.69117121	    -17.55992717	      0.00000000	     34.32000000
      2.19000000	     -0.82975643	     -8.82887738	    -11.78406881	     -0.00423131	      0.00403036	     -0.00078352	    -28.20116913	      4.64606478	      9.56881902	     -4.74486290	     58.91634661	     -5.88665693	     57.04771575	     76.73716300	    -16.59022296	      0.00000000	     34.32000000
      2.20000000	     -0.92985932	     -8.85592077	    -11.58214555	     -0.00423131	      0.00403036	     -0.00078352	    -28.21546089	      4.65557064	      9.59206742	     -4.74023470	     58.97683902	     -5.89352043	     57.06082948	     76.85844172	    -16.60206708	      0.00000000	     34.32000000
      2.21000000	     -0.55852236	     -9.19109042	    -11.38645541	     -0.00423131	      0.00403036	     -0.00078352	    -28.04794221	      5.12381658	     10.20419581	     -4.41262440	     59.48349467	     -6.01617983	     56.70608302	     77.08750515	    -18.13088443	      0.00000000	     34.32000000
      2.22000000	     -0.75884364	     -9.23481682	    -11.19975211	     -0.00423131	      0.00403036	     -0.00078352	    -28.10235891	      5.12396819	     10.20529062	     -4.41799154	     59.59962683	     -6.02736722	     56.68701916	     77.31008832	    -18.12992397	      0.00000000	     34.32000000
      2.23000000	     -0.67978776	     -9.04865249	    -11.39989883	     -0.00423131	      0.00403036	     -0.00078352	    -28.58747597	      5.12976270	      9.84478438	     -4.45531977	     60.19521829	     -6.12236734	     56.77083203	     77.72116379	    -17.03467492	      0.00000000	     34.32000000
      2.24000000	     -0.93841884	     -9.13101009	    -11.23511629	     -0.00423131	      0.00403036	     -0.00078352	    -28.65150877	      5.18052300	      9.81995021	     -4.42588775	     60.31503706	     -6.14960582	     56.70662543	     77.97657745	    -17.03413014	      0.00000000	     34.32000000
      2.25000000	     -1.00319089	     -8.81663911	    -11.57792508	     -0.00423131	      0.00403036	     -0.00078352	    -29.01602019	      4.96834335	      9.28701169	     -4.59924673	     60.38917182	     -6.15525903	     56.51013844	     78.90916317	    -16.04616609	      0.00000000	     34.32000000
      2.26000000	     -0.95366631	     -8.80985813	    -11.36878854	     -0.00423131	      0.00403036	     -0.00078352	    -29.12897375	      5.27492208	      9.31121771	     -4.39750312	     60.74277414	     -6.27028057	     56.10135165	     78.93582870	    -16.17820293	      0.00000000	     34.32000000
